<svg width="276" height="49" viewBox="0 0 276 49" fill="none" xmlns="http://www.w3.org/2000/svg">
<path d="M22.6769 8L42.3156 38.1645H3.03812L22.6769 8Z" fill="#2E2E2E"/>
<path d="M33.3232 8L52.9619 38.1645H13.6844L33.3232 8Z" fill="#638A5C"/>
<path d="M66.5284 39V9.90909H72.679V21.9119H85.1648V9.90909H91.3011V39H85.1648V26.983H72.679V39H66.5284ZM96.2585 39V17.1818H102.31V39H96.2585ZM99.2983 14.3693C98.3987 14.3693 97.6269 14.071 96.983 13.4744C96.3485 12.8684 96.0312 12.1439 96.0312 11.3011C96.0312 10.4678 96.3485 9.75284 96.983 9.15625C97.6269 8.55019 98.3987 8.24716 99.2983 8.24716C100.198 8.24716 100.965 8.55019 101.599 9.15625C102.243 9.75284 102.565 10.4678 102.565 11.3011C102.565 12.1439 102.243 12.8684 101.599 13.4744C100.965 14.071 100.198 14.3693 99.2983 14.3693ZM112.64 32.7216L112.654 25.4631H113.535L120.523 17.1818H127.469L118.08 28.1477H116.646L112.64 32.7216ZM107.157 39V9.90909H113.208V39H107.157ZM120.793 39L114.373 29.4972L118.407 25.2216L127.881 39H120.793ZM139.483 39.4261C137.239 39.4261 135.307 38.9716 133.688 38.0625C132.078 37.1439 130.837 35.8466 129.966 34.1705C129.095 32.4848 128.659 30.4915 128.659 28.1903C128.659 25.946 129.095 23.9763 129.966 22.2812C130.837 20.5862 132.063 19.2652 133.645 18.3182C135.236 17.3712 137.101 16.8977 139.241 16.8977C140.681 16.8977 142.021 17.1297 143.261 17.5938C144.511 18.0483 145.6 18.7348 146.528 19.6534C147.466 20.572 148.195 21.7273 148.716 23.1193C149.237 24.5019 149.497 26.1212 149.497 27.9773V29.6392H131.074V25.8892H143.801C143.801 25.018 143.612 24.2462 143.233 23.5739C142.854 22.9015 142.329 22.3759 141.656 21.9972C140.993 21.6089 140.222 21.4148 139.341 21.4148C138.422 21.4148 137.608 21.6278 136.898 22.054C136.197 22.4706 135.648 23.0341 135.25 23.7443C134.852 24.4451 134.649 25.2263 134.639 26.0881V29.6534C134.639 30.733 134.838 31.6657 135.236 32.4517C135.643 33.2377 136.216 33.8438 136.955 34.2699C137.693 34.696 138.569 34.9091 139.582 34.9091C140.255 34.9091 140.87 34.8144 141.429 34.625C141.988 34.4356 142.466 34.1515 142.864 33.7727C143.261 33.3939 143.564 32.9299 143.773 32.3807L149.369 32.75C149.085 34.0947 148.503 35.2689 147.622 36.2727C146.751 37.267 145.624 38.0436 144.241 38.6023C142.868 39.1515 141.282 39.4261 139.483 39.4261ZM153.56 39V9.90909H172.821V14.9801H159.71V21.9119H171.543V26.983H159.71V39H153.56ZM176.844 39V17.1818H182.896V39H176.844ZM179.884 14.3693C178.985 14.3693 178.213 14.071 177.569 13.4744C176.934 12.8684 176.617 12.1439 176.617 11.3011C176.617 10.4678 176.934 9.75284 177.569 9.15625C178.213 8.55019 178.985 8.24716 179.884 8.24716C180.784 8.24716 181.551 8.55019 182.185 9.15625C182.829 9.75284 183.151 10.4678 183.151 11.3011C183.151 12.1439 182.829 12.8684 182.185 13.4744C181.551 14.071 180.784 14.3693 179.884 14.3693ZM193.794 26.3864V39H187.743V17.1818H193.51V21.0312H193.766C194.249 19.7623 195.058 18.7585 196.195 18.0199C197.331 17.2718 198.709 16.8977 200.328 16.8977C201.843 16.8977 203.164 17.2292 204.291 17.892C205.418 18.5549 206.294 19.5019 206.919 20.733C207.544 21.9545 207.857 23.4129 207.857 25.108V39H201.805V26.1875C201.815 24.8523 201.474 23.8106 200.783 23.0625C200.091 22.3049 199.14 21.9261 197.928 21.9261C197.113 21.9261 196.393 22.1013 195.768 22.4517C195.153 22.8021 194.67 23.3134 194.32 23.9858C193.979 24.6487 193.804 25.4489 193.794 26.3864ZM220.665 39.3551C219.008 39.3551 217.507 38.929 216.163 38.0767C214.827 37.215 213.767 35.9508 212.981 34.2841C212.204 32.608 211.816 30.553 211.816 28.1193C211.816 25.6193 212.219 23.5407 213.023 21.8835C213.828 20.2169 214.898 18.9716 216.234 18.1477C217.578 17.3144 219.051 16.8977 220.651 16.8977C221.873 16.8977 222.891 17.1061 223.705 17.5227C224.529 17.9299 225.192 18.4413 225.694 19.0568C226.205 19.6629 226.594 20.2595 226.859 20.8466H227.043V9.90909H233.08V39H227.114V35.5057H226.859C226.575 36.1117 226.172 36.7131 225.651 37.3097C225.14 37.8968 224.472 38.3845 223.648 38.7727C222.834 39.161 221.84 39.3551 220.665 39.3551ZM222.583 34.5398C223.558 34.5398 224.382 34.2746 225.055 33.7443C225.737 33.2045 226.257 32.4517 226.617 31.4858C226.987 30.5199 227.171 29.3883 227.171 28.0909C227.171 26.7936 226.991 25.6667 226.631 24.7102C226.272 23.7538 225.751 23.0152 225.069 22.4943C224.387 21.9735 223.558 21.7131 222.583 21.7131C221.589 21.7131 220.751 21.983 220.069 22.5227C219.387 23.0625 218.871 23.8106 218.521 24.767C218.17 25.7235 217.995 26.8314 217.995 28.0909C217.995 29.3598 218.17 30.482 218.521 31.4574C218.88 32.4233 219.397 33.1809 220.069 33.7301C220.751 34.2699 221.589 34.5398 222.583 34.5398ZM247.999 39.4261C245.754 39.4261 243.822 38.9716 242.203 38.0625C240.593 37.1439 239.353 35.8466 238.482 34.1705C237.61 32.4848 237.175 30.4915 237.175 28.1903C237.175 25.946 237.61 23.9763 238.482 22.2812C239.353 20.5862 240.579 19.2652 242.161 18.3182C243.751 17.3712 245.617 16.8977 247.757 16.8977C249.196 16.8977 250.536 17.1297 251.777 17.5938C253.027 18.0483 254.116 18.7348 255.044 19.6534C255.982 20.572 256.711 21.7273 257.232 23.1193C257.752 24.5019 258.013 26.1212 258.013 27.9773V29.6392H239.589V25.8892H252.317C252.317 25.018 252.127 24.2462 251.749 23.5739C251.37 22.9015 250.844 22.3759 250.172 21.9972C249.509 21.6089 248.737 21.4148 247.857 21.4148C246.938 21.4148 246.124 21.6278 245.413 22.054C244.713 22.4706 244.163 23.0341 243.766 23.7443C243.368 24.4451 243.164 25.2263 243.155 26.0881V29.6534C243.155 30.733 243.354 31.6657 243.751 32.4517C244.159 33.2377 244.732 33.8438 245.47 34.2699C246.209 34.696 247.085 34.9091 248.098 34.9091C248.77 34.9091 249.386 34.8144 249.945 34.625C250.503 34.4356 250.982 34.1515 251.379 33.7727C251.777 33.3939 252.08 32.9299 252.288 32.3807L257.885 32.75C257.601 34.0947 257.018 35.2689 256.138 36.2727C255.267 37.267 254.14 38.0436 252.757 38.6023C251.384 39.1515 249.798 39.4261 247.999 39.4261ZM261.962 39V17.1818H267.828V20.9886H268.055C268.453 19.6345 269.121 18.6117 270.058 17.9205C270.996 17.2197 272.075 16.8693 273.297 16.8693C273.6 16.8693 273.927 16.8883 274.277 16.9261C274.627 16.964 274.935 17.0161 275.2 17.0824V22.4517C274.916 22.3665 274.523 22.2907 274.021 22.2244C273.519 22.1581 273.06 22.125 272.643 22.125C271.753 22.125 270.958 22.3191 270.257 22.7074C269.566 23.0862 269.017 23.6165 268.609 24.2983C268.212 24.9801 268.013 25.7661 268.013 26.6562V39H261.962Z" fill="#262626"/>
</svg>
